<svg xmlns="http://www.w3.org/2000/svg" viewBox="0 0 603.24 100.54" width="100%" height="100%">
  <style>
    @import url('https://fonts.googleapis.com/css2?family=Oswald:wght@700&amp;display=swap');
    .letter {
      font-family: 'Oswald', 'Impact', sans-serif;
      font-weight: 700;
      font-size: 38px;
      text-anchor: middle;
      dominant-baseline: central;
    }
  </style>
  <rect x="0" y="0" width="49.77" height="49.77" fill="#de266c" />
  <text x="25.135" y="27.135" fill="#ffffff" class="letter">C</text>
  <rect x="50.27" y="0" width="49.77" height="49.77" fill="#ffffff" />
  <text x="75.405" y="27.135" fill="#0a0a0a" class="letter">L</text>
  <rect x="100.54" y="0" width="49.77" height="49.77" fill="#ffffff" />
  <text x="125.67500000000001" y="27.135" fill="#0a0a0a" class="letter">A</text>
  <rect x="150.81" y="0" width="49.77" height="49.77" fill="#ffffff" />
  <text x="175.945" y="27.135" fill="#0a0a0a" class="letter">S</text>
  <rect x="201.08" y="0" width="49.77" height="49.77" fill="#ffffff" />
  <text x="226.215" y="27.135" fill="#0a0a0a" class="letter">S</text>
  <rect x="251.35000000000002" y="0" width="49.77" height="49.77" fill="#a4003e" />
  <text x="276.485" y="27.135" fill="#ffffff" class="letter">R</text>
  <rect x="301.62" y="0" width="49.77" height="49.77" fill="#ffffff" />
  <text x="326.755" y="27.135" fill="#0a0a0a" class="letter">O</text>
  <rect x="351.89000000000004" y="0" width="49.77" height="49.77" fill="#ffffff" />
  <text x="377.02500000000003" y="27.135" fill="#0a0a0a" class="letter">O</text>
  <rect x="402.16" y="0" width="49.77" height="49.77" fill="#ffffff" />
  <text x="427.295" y="27.135" fill="#0a0a0a" class="letter">M</text>
  <rect x="502.70000000000005" y="0" width="49.77" height="49.77" fill="#a4003e" />
  <text x="527.835" y="27.135" fill="#ffffff" class="letter">O</text>
  <rect x="552.97" y="0" width="49.77" height="49.77" fill="#ffffff" />
  <text x="578.105" y="27.135" fill="#0a0a0a" class="letter">F</text>
  <rect x="150.81" y="50.27" width="49.77" height="49.77" fill="#e5007f" />
  <text x="175.945" y="77.405" fill="#ffffff" class="letter">T</text>
  <rect x="201.08" y="50.27" width="49.77" height="49.77" fill="#ffffff" />
  <text x="226.215" y="77.405" fill="#0a0a0a" class="letter">H</text>
  <rect x="251.35000000000002" y="50.27" width="49.77" height="49.77" fill="#ffffff" />
  <text x="276.485" y="77.405" fill="#0a0a0a" class="letter">E</text>
  <rect x="351.89000000000004" y="50.27" width="49.77" height="49.77" fill="#a4003e" />
  <text x="377.02500000000003" y="77.405" fill="#ffffff" class="letter">E</text>
  <rect x="402.16" y="50.27" width="49.77" height="49.77" fill="#ffffff" />
  <text x="427.295" y="77.405" fill="#0a0a0a" class="letter">L</text>
  <rect x="452.43" y="50.27" width="49.77" height="49.77" fill="#ffffff" />
  <text x="477.565" y="77.405" fill="#0a0a0a" class="letter">I</text>
  <rect x="502.70000000000005" y="50.27" width="49.77" height="49.77" fill="#de266c" />
  <text x="527.835" y="77.405" fill="#ffffff" class="letter">E</text>
</svg>
