<svg xmlns="http://www.w3.org/2000/svg" viewBox="0 0 550 100" width="100%" height="100%">
  <style>
    @import url('https://fonts.googleapis.com/css2?family=Oswald:wght@700&amp;display=swap');
    .letter {
      font-family: 'Oswald', 'Impact', sans-serif;
      font-weight: 700;
      font-size: 38px;
      text-anchor: middle;
      dominant-baseline: central;
    }
  </style>
  <rect x="0" y="0" width="49.5" height="49.5" fill="#de266c" />
  <text x="25" y="27" fill="#ffffff" class="letter">C</text>
  <rect x="50" y="0" width="49.5" height="49.5" fill="#ffffff" />
  <text x="75" y="27" fill="#0a0a0a" class="letter">L</text>
  <rect x="100" y="0" width="49.5" height="49.5" fill="#ffffff" />
  <text x="125" y="27" fill="#0a0a0a" class="letter">A</text>
  <rect x="150" y="0" width="49.5" height="49.5" fill="#ffffff" />
  <text x="175" y="27" fill="#0a0a0a" class="letter">S</text>
  <rect x="200" y="0" width="49.5" height="49.5" fill="#ffffff" />
  <text x="225" y="27" fill="#0a0a0a" class="letter">S</text>
  <rect x="250" y="0" width="49.5" height="49.5" fill="#a4003e" />
  <text x="275" y="27" fill="#ffffff" class="letter">R</text>
  <rect x="300" y="0" width="49.5" height="49.5" fill="#ffffff" />
  <text x="325" y="27" fill="#0a0a0a" class="letter">O</text>
  <rect x="350" y="0" width="49.5" height="49.5" fill="#ffffff" />
  <text x="375" y="27" fill="#0a0a0a" class="letter">O</text>
  <rect x="400" y="0" width="49.5" height="49.5" fill="#ffffff" />
  <text x="425" y="27" fill="#0a0a0a" class="letter">M</text>
  <rect x="450" y="0" width="49.5" height="49.5" fill="#a4003e" />
  <text x="475" y="27" fill="#ffffff" class="letter">O</text>
  <rect x="500" y="0" width="49.5" height="49.5" fill="#ffffff" />
  <text x="525" y="27" fill="#0a0a0a" class="letter">F</text>
  <rect x="150" y="50" width="49.5" height="49.5" fill="#e5007f" />
  <text x="175" y="77" fill="#ffffff" class="letter">T</text>
  <rect x="200" y="50" width="49.5" height="49.5" fill="#ffffff" />
  <text x="225" y="77" fill="#0a0a0a" class="letter">H</text>
  <rect x="250" y="50" width="49.5" height="49.5" fill="#ffffff" />
  <text x="275" y="77" fill="#0a0a0a" class="letter">E</text>
  <rect x="300" y="50" width="49.5" height="49.5" fill="#a4003e" />
  <text x="325" y="77" fill="#ffffff" class="letter">E</text>
  <rect x="350" y="50" width="49.5" height="49.5" fill="#ffffff" />
  <text x="375" y="77" fill="#0a0a0a" class="letter">L</text>
  <rect x="400" y="50" width="49.5" height="49.5" fill="#ffffff" />
  <text x="425" y="77" fill="#0a0a0a" class="letter">I</text>
  <rect x="450" y="50" width="49.5" height="49.5" fill="#de266c" />
  <text x="475" y="77" fill="#ffffff" class="letter">E</text>
</svg>
